<?xml version="1.0" encoding="utf-8"?>
<svg width="779.62451171875" height="208" viewBox="22 55.581 960 240" xmlns="http://www.w3.org/2000/svg">
  <defs>
    <style id="bx-google-fonts">@import url(https://fonts.googleapis.com/css?family=Comfortaa:300,400,700);</style>
  </defs>
  <g transform="matrix(1, 0, 0, 1, 90.195549, 16.000006)">
    <path d="M 36.432 123.627 C 44.765 83.464 64.83 59.615 96.61 63.415 C 128.392 67.216 136.067 123.54 143.917 136.824 C 147.447 142.8 149.17 143.371 167.769 164.689 C 186.367 186.008 188.79 221.525 162.605 240.396 C 151.426 248.766 122.453 261.507 91.32 251.126 C 60.187 240.744 51.047 225.966 42.658 204.792 C 34.269 183.616 31.515 147.333 36.432 123.627 Z" style="stroke-linecap: round; stroke-width: 5; fill: rgb(169, 124, 80);"/>
    <path d="M 26.974 121.529 C 35.401 80.152 55.697 55.581 87.842 59.497 C 119.988 63.413 127.75 121.44 135.69 135.125 C 139.262 141.282 141.004 141.871 159.817 163.835 C 178.629 185.798 181.079 222.389 154.593 241.831 C 143.286 250.455 113.98 263.581 82.491 252.885 C 51.001 242.189 41.757 226.964 33.271 205.149 C 24.785 183.334 22 145.953 26.974 121.529 Z" style="stroke: black; stroke-linecap: round; fill: none; stroke-width: 6;"/>
    <g transform="matrix(1.003647, 0, 0, 0.995987, -69.220551, -11.635829)">
      <ellipse cx="204.345" cy="156.474" rx="20.199" ry="20.276" style="isolation: isolate; fill: rgb(255, 255, 255);" transform="matrix(0.999391, -0.034898, 0.0349, 0.999391, -9.995225, -13.285579)"/>
      <g transform="matrix(0.299357, 0, 0, 0.299357, 123.081718, 108.642609)">
        <g>
          <path d="M 255.915 7.493 C 209.762 7.493 172.214 45.04 172.214 91.193 C 172.214 137.346 209.762 174.893 255.915 174.893 C 281.2 174.893 304.856 163.639 320.84 144.017 C 326.746 136.769 331.25 128.695 334.43 120.017 C 347.244 120.919 356.626 124.958 362.348 132.054 C 372.81 145.019 368.655 164.844 368.613 165.016 C 368.486 165.593 368.413 166.195 368.413 166.787 L 368.849 261.118 C 368.849 265.591 372.477 269.219 376.949 269.219 C 381.427 269.219 385.05 265.591 385.05 261.118 L 384.614 167.587 C 385.563 162.501 388.89 139.298 375.052 122.006 C 366.889 111.816 354.613 105.888 338.571 104.188 C 339.236 99.898 339.599 95.563 339.599 91.194 C 339.614 45.04 302.073 7.493 255.915 7.493 Z M 320.899 109.527 C 318.394 118.416 314.149 126.582 308.285 133.785 C 295.391 149.616 276.306 158.689 255.919 158.689 C 218.699 158.689 188.419 128.412 188.419 91.189 C 188.419 53.966 218.699 23.689 255.919 23.689 C 293.15 23.689 323.42 53.966 323.42 91.189 C 323.414 97.419 322.576 103.592 320.899 109.527 Z"/>
          <path d="M 185.366 334.652 C 189.772 332.776 193.871 330.159 197.509 326.919 C 201.147 330.159 205.255 332.776 209.657 334.652 C 231.322 350.679 252.406 358.795 272.34 358.795 C 327.461 358.795 353.55 298.509 354.635 295.947 C 355.697 293.415 355.161 290.499 353.25 288.519 C 351.349 286.544 348.457 285.897 345.889 286.867 C 331.622 292.282 318.684 295.009 307.424 295.009 C 284.215 295.009 273.249 283.335 268.67 276.046 C 267.831 274.067 266.84 272.099 265.675 270.152 C 257.446 256.496 243.054 248.336 227.174 248.336 C 216.125 248.336 205.652 252.345 197.509 259.528 C 189.366 252.346 178.902 248.336 167.844 248.336 C 151.964 248.336 137.571 256.497 129.339 270.152 C 128.179 272.099 127.174 274.067 126.349 276.046 C 121.767 283.348 110.8 295.009 87.59 295.009 C 76.336 295.009 63.393 292.268 49.125 286.867 C 46.567 285.902 43.665 286.544 41.759 288.519 C 39.856 290.501 39.312 293.415 40.379 295.947 C 41.464 298.518 67.566 358.795 122.674 358.795 C 142.62 358.795 163.709 350.679 185.366 334.652 Z"/>
        </g>
      </g>
    </g>
    <path d="M 77.917 75.713 C 72.513 76.194 59.643 81.588 49.738 109.562" style="fill: none; stroke: black; stroke-linecap: round; stroke-width: 6;"/>
    <ellipse cx="46.984" cy="119.14" rx="3.011" ry="2.988"/>
    <ellipse cx="43.039" cy="232.754" rx="3.011" ry="2.988" transform="matrix(0.999999, 0, 0, 1, 36.929425, 1.655243)"/>
    <ellipse cx="101.673" cy="229.017" rx="3.011" ry="2.988"/>
    <ellipse cx="123.785" cy="231.58" rx="3.011" ry="2.988"/>
    <ellipse cx="95.672" cy="243.482" rx="3.011" ry="2.988"/>
    <text x="223.656" y="211.063" style="font-family: Comfortaa; font-size: 130px; white-space: pre;" transform="matrix(1.002846, 0, 0, 0.986037, -0.6366, 1.104342)">Cotato.io</text>
    <ellipse cx="113.008" cy="243.612" rx="3.011" ry="2.988" style="fill: rgb(255, 255, 255);"/>
    <ellipse cx="112.885" cy="242.998" rx="3.011" ry="2.988" style="fill: rgb(255, 255, 255);" transform="matrix(0.999997, 0, 0, 1, -48.267468, -15.186615)"/>
  </g>
</svg>